<svg width="80" height="16" viewBox="0 0 80 16" fill="none" xmlns="http://www.w3.org/2000/svg">
<g clip-path="url(#clip0)">
<path d="M13.8355 13.8355L8.53553 8.53553C5.38571 5.38571 7.61654 0 12.0711 0H61.8289C63.155 0 64.4268 0.526786 65.3645 1.46447L70.6645 6.76447C73.8143 9.91429 71.5835 15.3 67.1289 15.3H17.3711C16.045 15.3 14.7732 14.7732 13.8355 13.8355Z" fill="#F3F3F3" fill-opacity="0.8"/>
<path d="M17.8611 11C17.5945 11 17.3678 10.9067 17.1811 10.72C16.9945 10.5333 16.9011 10.3067 16.9011 10.04V6.2C16.9011 5.93333 16.9945 5.70667 17.1811 5.52C17.3678 5.33333 17.5945 5.24 17.8611 5.24H22.6451V5.888H17.8611C17.7758 5.888 17.7011 5.92 17.6371 5.984C17.5785 6.04267 17.5491 6.11467 17.5491 6.2V10.04C17.5491 10.1253 17.5785 10.2 17.6371 10.264C17.7011 10.3227 17.7758 10.352 17.8611 10.352H22.6451V11H17.8611ZM24.4153 11C24.1486 11 23.9193 10.9067 23.7273 10.72C23.5406 10.528 23.4473 10.2987 23.4473 10.032V8.352H27.5113V7.328C27.5113 7.24267 27.4793 7.17067 27.4153 7.112C27.3566 7.048 27.2846 7.016 27.1993 7.016H23.4473V6.36H27.1993C27.4713 6.36 27.7006 6.456 27.8873 6.648C28.0793 6.83467 28.1753 7.06133 28.1753 7.328V11H24.4153ZM24.4153 10.344H27.5113V9.008H24.1033V10.032C24.1033 10.1173 24.1326 10.192 24.1913 10.256C24.2553 10.3147 24.3299 10.344 24.4153 10.344ZM29.8918 11C29.6251 11 29.3958 10.9067 29.2038 10.72C29.0171 10.528 28.9238 10.2987 28.9238 10.032V4.84H29.5798V10.032C29.5798 10.1173 29.6091 10.192 29.6678 10.256C29.7318 10.3147 29.8065 10.344 29.8918 10.344H30.6758V11H29.8918ZM31.3379 11V6.36H31.9939V11H31.3379ZM31.3379 5.496V4.84H31.9939V5.496H31.3379ZM33.0179 11V4.84H33.6739V6.36H36.7779C37.0446 6.36 37.2713 6.456 37.4579 6.648C37.6499 6.83467 37.7459 7.06133 37.7459 7.328V10.032C37.7459 10.2987 37.6499 10.528 37.4579 10.72C37.2713 10.9067 37.0446 11 36.7779 11H33.0179ZM33.9939 10.344H36.7779C36.8633 10.344 36.9353 10.3147 36.9939 10.256C37.0579 10.192 37.0899 10.1173 37.0899 10.032V7.328C37.0899 7.24267 37.0579 7.17067 36.9939 7.112C36.9353 7.048 36.8633 7.016 36.7779 7.016H33.9939C33.9086 7.016 33.8339 7.048 33.7699 7.112C33.7059 7.17067 33.6739 7.24267 33.6739 7.328V10.032C33.6739 10.1173 33.7059 10.192 33.7699 10.256C33.8339 10.3147 33.9086 10.344 33.9939 10.344ZM38.3379 11V7.328C38.3379 7.06133 38.4312 6.83467 38.6179 6.648C38.8099 6.456 39.0392 6.36 39.3059 6.36H41.9139V7.016H39.3059C39.2205 7.016 39.1459 7.048 39.0819 7.112C39.0232 7.17067 38.9939 7.24267 38.9939 7.328V11H38.3379ZM43.3996 11C43.133 11 42.9036 10.9067 42.7116 10.72C42.525 10.528 42.4316 10.2987 42.4316 10.032V8.352H46.4956V7.328C46.4956 7.24267 46.4636 7.17067 46.3996 7.112C46.341 7.048 46.269 7.016 46.1836 7.016H42.4316V6.36H46.1836C46.4556 6.36 46.685 6.456 46.8716 6.648C47.0636 6.83467 47.1596 7.06133 47.1596 7.328V11H43.3996ZM43.3996 10.344H46.4956V9.008H43.0876V10.032C43.0876 10.1173 43.117 10.192 43.1756 10.256C43.2396 10.3147 43.3143 10.344 43.3996 10.344ZM48.9623 11C48.6903 11 48.461 10.9067 48.2743 10.72C48.0876 10.528 47.9943 10.2987 47.9943 10.032V4.84H48.6503V6.36H50.6583V7.016H48.6503V10.032C48.6503 10.1173 48.6796 10.192 48.7383 10.256C48.8023 10.3147 48.877 10.344 48.9623 10.344H50.6583V11H48.9623ZM51.3066 11V6.36H51.9626V11H51.3066ZM51.3066 5.496V4.84H51.9626V5.496H51.3066ZM53.9307 11C53.664 11 53.4347 10.9067 53.2427 10.72C53.056 10.528 52.9627 10.2987 52.9627 10.032V7.328C52.9627 7.06133 53.056 6.83467 53.2427 6.648C53.4347 6.456 53.664 6.36 53.9307 6.36H56.7147C56.9867 6.36 57.216 6.456 57.4027 6.648C57.5947 6.83467 57.6907 7.06133 57.6907 7.328V10.032C57.6907 10.2987 57.5947 10.528 57.4027 10.72C57.216 10.9067 56.9867 11 56.7147 11H53.9307ZM53.9307 10.344H56.7147C56.8 10.344 56.872 10.3147 56.9307 10.256C56.9947 10.192 57.0267 10.1173 57.0267 10.032V7.328C57.0267 7.24267 56.9947 7.17067 56.9307 7.112C56.872 7.048 56.8 7.016 56.7147 7.016H53.9307C53.8454 7.016 53.7707 7.048 53.7067 7.112C53.648 7.17067 53.6187 7.24267 53.6187 7.328V10.032C53.6187 10.1173 53.648 10.192 53.7067 10.256C53.7707 10.3147 53.8454 10.344 53.9307 10.344ZM58.4086 11V6.36H62.1686C62.4352 6.36 62.6619 6.456 62.8486 6.648C63.0406 6.83467 63.1366 7.06133 63.1366 7.328V11H62.4806V7.328C62.4806 7.24267 62.4486 7.17067 62.3846 7.112C62.3259 7.048 62.2539 7.016 62.1686 7.016H59.3846C59.2992 7.016 59.2246 7.048 59.1606 7.112C59.0966 7.17067 59.0646 7.24267 59.0646 7.328V11H58.4086Z" fill="#D34C4C"/>
</g>
<defs>
<clipPath id="clip0">
<rect width="79.2" height="15.3" fill="white"/>
</clipPath>
</defs>
</svg>
