<svg width="36" height="36" viewBox="0 0 36 36" fill="none" xmlns="http://www.w3.org/2000/svg">
<g clip-path="url(#clip0)">
<rect y="17.6777" width="25" height="25" rx="5" transform="rotate(-45 0 17.6777)" fill="#F3F3F3" fill-opacity="0.8"/>
<g style="mix-blend-mode:darken">
<path d="M8.60034 21V15.248H13.4003C13.667 15.248 13.8937 15.344 14.0803 15.536C14.267 15.7227 14.3603 15.9467 14.3603 16.208V17.896C14.3603 18.1573 14.267 18.384 14.0803 18.576C13.8937 18.7627 13.667 18.856 13.4003 18.856H9.24834V21H8.60034ZM9.56034 18.2H13.4003C13.4857 18.2 13.5577 18.1707 13.6163 18.112C13.6803 18.0533 13.7123 17.9813 13.7123 17.896V16.208C13.7123 16.1227 13.6803 16.0507 13.6163 15.992C13.5577 15.928 13.4857 15.896 13.4003 15.896H9.56034C9.47501 15.896 9.40034 15.928 9.33634 15.992C9.27768 16.0507 9.24834 16.1227 9.24834 16.208V17.896C9.24834 17.9813 9.27768 18.0533 9.33634 18.112C9.40034 18.1707 9.47501 18.2 9.56034 18.2ZM15.8645 21C15.5978 21 15.3685 20.9067 15.1765 20.72C14.9898 20.528 14.8965 20.2987 14.8965 20.032V14.84H15.5525V20.032C15.5525 20.1173 15.5818 20.192 15.6405 20.256C15.7045 20.3147 15.7791 20.344 15.8645 20.344H16.6485V21H15.8645ZM18.2004 21C17.9337 21 17.7044 20.9067 17.5124 20.72C17.3257 20.528 17.2324 20.2987 17.2324 20.032V18.352H21.2964V17.328C21.2964 17.2427 21.2644 17.1707 21.2004 17.112C21.1417 17.048 21.0697 17.016 20.9844 17.016H17.2324V16.36H20.9844C21.2564 16.36 21.4857 16.456 21.6724 16.648C21.8644 16.8347 21.9604 17.0613 21.9604 17.328V21H18.2004ZM18.2004 20.344H21.2964V19.008H17.8884V20.032C17.8884 20.1173 17.9177 20.192 17.9764 20.256C18.0404 20.3147 18.1151 20.344 18.2004 20.344ZM23.5631 22.84V22.176H26.4591C26.5444 22.176 26.6164 22.144 26.6751 22.08C26.7391 22.0213 26.7711 21.9493 26.7711 21.864V21H23.6751C23.4084 21 23.1791 20.9067 22.9871 20.72C22.8004 20.528 22.7071 20.2987 22.7071 20.032V16.376H23.3631V20.032C23.3631 20.1173 23.3924 20.192 23.4511 20.256C23.5151 20.3147 23.5898 20.344 23.6751 20.344H26.4591C26.5444 20.344 26.6164 20.3147 26.6751 20.256C26.7391 20.192 26.7711 20.1173 26.7711 20.032V16.376H27.4271V21.864C27.4271 22.136 27.3338 22.3653 27.1471 22.552C26.9604 22.744 26.7311 22.84 26.4591 22.84H23.5631Z" fill="#0C7C8C"/>
</g>
</g>
<defs>
<clipPath id="clip0">
<rect width="35.4" height="35.4" fill="white"/>
</clipPath>
</defs>
</svg>
