<svg width="72" height="16" viewBox="0 0 72 16" fill="none" xmlns="http://www.w3.org/2000/svg">
<g clip-path="url(#clip0)">
<path d="M55.2616 13.9334L60.8678 8.63337C64.1542 5.52648 61.9554 0 57.4329 0H16.7733C15.4958 0 14.2667 0.489 13.3384 1.36663L7.73219 6.66663C4.44579 9.77352 6.6446 15.3 11.1671 15.3H51.8267C53.1042 15.3 54.3333 14.811 55.2616 13.9334Z" fill="#F3F3F3" fill-opacity="0.8"/>
<path d="M18.5633 11C18.2966 11 18.07 10.9067 17.8833 10.72C17.6966 10.5333 17.6033 10.3067 17.6033 10.04V9.816H18.2513V10.04C18.2513 10.1253 18.2806 10.2 18.3393 10.264C18.4033 10.3227 18.478 10.352 18.5633 10.352H22.4033C22.4886 10.352 22.5606 10.3227 22.6193 10.264C22.6833 10.2 22.7153 10.1253 22.7153 10.04V8.752C22.7153 8.66667 22.6833 8.59467 22.6193 8.536C22.5606 8.47733 22.4886 8.448 22.4033 8.448H18.5633C18.2966 8.448 18.07 8.35467 17.8833 8.168C17.6966 7.976 17.6033 7.74933 17.6033 7.488V6.2C17.6033 5.93333 17.6966 5.70667 17.8833 5.52C18.07 5.33333 18.2966 5.24 18.5633 5.24H22.4033C22.67 5.24 22.8966 5.33333 23.0833 5.52C23.27 5.70667 23.3633 5.93333 23.3633 6.2V6.424H22.7153V6.2C22.7153 6.11467 22.6833 6.04267 22.6193 5.984C22.5606 5.92 22.4886 5.888 22.4033 5.888H18.5633C18.478 5.888 18.4033 5.92 18.3393 5.984C18.2806 6.04267 18.2513 6.11467 18.2513 6.2V7.488C18.2513 7.57333 18.2806 7.64533 18.3393 7.704C18.4033 7.76267 18.478 7.792 18.5633 7.792H22.4033C22.67 7.792 22.8966 7.888 23.0833 8.08C23.27 8.26667 23.3633 8.49067 23.3633 8.752V10.04C23.3633 10.3067 23.27 10.5333 23.0833 10.72C22.8966 10.9067 22.67 11 22.4033 11H18.5633ZM25.1494 11C24.8828 11 24.6534 10.9067 24.4614 10.72C24.2748 10.528 24.1814 10.2987 24.1814 10.032V7.328C24.1814 7.06133 24.2748 6.83467 24.4614 6.648C24.6534 6.456 24.8828 6.36 25.1494 6.36H27.9334C28.2054 6.36 28.4348 6.456 28.6214 6.648C28.8134 6.83467 28.9094 7.06133 28.9094 7.328V9.008H24.8374V10.032C24.8374 10.1173 24.8668 10.192 24.9254 10.256C24.9894 10.3147 25.0641 10.344 25.1494 10.344H28.9094V11H25.1494ZM24.8374 8.352H28.2454V7.328C28.2454 7.24267 28.2134 7.17067 28.1494 7.112C28.0908 7.048 28.0188 7.016 27.9334 7.016H25.1494C25.0641 7.016 24.9894 7.048 24.9254 7.112C24.8668 7.17067 24.8374 7.24267 24.8374 7.328V8.352ZM30.7045 11C30.4325 11 30.2032 10.9067 30.0165 10.72C29.8298 10.528 29.7365 10.2987 29.7365 10.032V4.84H30.3925V6.36H32.4005V7.016H30.3925V10.032C30.3925 10.1173 30.4218 10.192 30.4805 10.256C30.5445 10.3147 30.6192 10.344 30.7045 10.344H32.4005V11H30.7045ZM33.9858 11C33.7138 11 33.4844 10.9067 33.2978 10.72C33.1111 10.528 33.0178 10.2987 33.0178 10.032V4.84H33.6738V6.36H35.6818V7.016H33.6738V10.032C33.6738 10.1173 33.7031 10.192 33.7618 10.256C33.8258 10.3147 33.9004 10.344 33.9858 10.344H35.6818V11H33.9858ZM36.3301 11V6.36H36.9861V11H36.3301ZM36.3301 5.496V4.84H36.9861V5.496H36.3301ZM37.8929 11V6.36H41.6529C41.9196 6.36 42.1463 6.456 42.3329 6.648C42.5249 6.83467 42.6209 7.06133 42.6209 7.328V11H41.9649V7.328C41.9649 7.24267 41.9329 7.17067 41.8689 7.112C41.8103 7.048 41.7383 7.016 41.6529 7.016H38.8689C38.7836 7.016 38.7089 7.048 38.6449 7.112C38.5809 7.17067 38.5489 7.24267 38.5489 7.328V11H37.8929ZM44.2153 12.832V12.168H47.1113C47.1966 12.168 47.2686 12.136 47.3273 12.072C47.3913 12.0133 47.4233 11.9413 47.4233 11.856V11H44.3273C44.0606 11 43.8313 10.9067 43.6393 10.72C43.4526 10.528 43.3593 10.2987 43.3593 10.032V7.328C43.3593 7.06133 43.4526 6.83467 43.6393 6.648C43.8313 6.456 44.0606 6.36 44.3273 6.36H47.1113C47.3833 6.36 47.6126 6.456 47.7993 6.648C47.9859 6.83467 48.0793 7.06133 48.0793 7.328V11.856C48.0793 12.128 47.9859 12.3573 47.7993 12.544C47.6126 12.736 47.3833 12.832 47.1113 12.832H44.2153ZM44.3273 10.344H47.1113C47.1966 10.344 47.2686 10.3147 47.3273 10.256C47.3913 10.192 47.4233 10.1173 47.4233 10.032V7.328C47.4233 7.24267 47.3913 7.17067 47.3273 7.112C47.2686 7.048 47.1966 7.016 47.1113 7.016H44.3273C44.2419 7.016 44.1673 7.048 44.1033 7.112C44.0446 7.17067 44.0153 7.24267 44.0153 7.328V10.032C44.0153 10.1173 44.0446 10.192 44.1033 10.256C44.1673 10.3147 44.2419 10.344 44.3273 10.344ZM49.6723 11C49.4056 11 49.1763 10.9067 48.9843 10.72C48.7976 10.528 48.7043 10.2987 48.7043 10.032V9.968H49.3603V10.032C49.3603 10.1173 49.3896 10.192 49.4483 10.256C49.5123 10.3147 49.587 10.344 49.6723 10.344H52.4563C52.5416 10.344 52.6136 10.3147 52.6723 10.256C52.7363 10.192 52.7683 10.1173 52.7683 10.032V9.32C52.7683 9.23467 52.7363 9.16267 52.6723 9.104C52.6136 9.04 52.5416 9.008 52.4563 9.008H49.6723C49.4056 9.008 49.1763 8.91467 48.9843 8.728C48.7976 8.536 48.7043 8.30667 48.7043 8.04V7.328C48.7043 7.06133 48.7976 6.83467 48.9843 6.648C49.1763 6.456 49.4056 6.36 49.6723 6.36H52.4563C52.7283 6.36 52.9576 6.456 53.1443 6.648C53.3363 6.83467 53.4323 7.06133 53.4323 7.328V7.392H52.7683V7.328C52.7683 7.24267 52.7363 7.17067 52.6723 7.112C52.6136 7.048 52.5416 7.016 52.4563 7.016H49.6723C49.587 7.016 49.5123 7.048 49.4483 7.112C49.3896 7.17067 49.3603 7.24267 49.3603 7.328V8.04C49.3603 8.12533 49.3896 8.2 49.4483 8.264C49.5123 8.32267 49.587 8.352 49.6723 8.352H52.4563C52.7283 8.352 52.9576 8.448 53.1443 8.64C53.3363 8.82667 53.4323 9.05333 53.4323 9.32V10.032C53.4323 10.2987 53.3363 10.528 53.1443 10.72C52.9576 10.9067 52.7283 11 52.4563 11H49.6723Z" fill="#699A81"/>
</g>
<defs>
<clipPath id="clip0">
<rect width="71.4" height="15.3" fill="white"/>
</clipPath>
</defs>
</svg>
